:SAMPLES-PER-SECOND 30
:FRAME-RANGE 1-2091
:FULLY-SPECIFIED
:DEGREES
1438
root  47.3176 38.5428 26.5299 -1.42691 34.0861 3.25513
RightUpLeg  -17.7569 6.75853 -8.95628
RightLeg  74.781 0.277581 0.0549493
RightFoot  2.79261 -0.512973 4.28917
RightToes  5.38607e-012 1.2921e-014 -6.02303e-014
Spine  -4.72167 -2.1519 -4.96337
Spine1  7.58007 -2.55372 -1.81579
HEad  38.0106 41.884 7.18918
LeftShoulder1  0.908968 -2.07679 -9.79113
LeftArm  -24.1099 -28.6661 -43.474
LeftForeArm  -23.1921 -2.76156 -3.17267
LeftHand  -0.07003 3.31979 3.048
RightShoulder  1.78936 2.54168 24.5096
RightArm  -8.96816 21.0892 47.7367
RightForeArm  61.3007 5.18488 10.9611
RightHand  0.0807834 -6.01511 -17.5446
LeftUpLeg  -12.9687 -0.344575 -10.5808
LeftLeg  23.1635 13.7448 6.6171
LeftFoot  -5.82246 -0.250387 5.91822
LeftToes  -7.20997e-011 3.75522e-011 -2.80735e-011
1439
root  48.5704 38.7799 27.7456 -2.20033 38.0617 2.12006
RightUpLeg  -20.0446 6.05407 -7.24406
RightLeg  70.7526 -0.567983 -2.66464
RightFoot  1.58973 -0.350862 3.1902
RightToes  5.38607e-012 1.2921e-014 -6.02303e-014
Spine  -4.70156 -2.8126 -5.03593
Spine1  7.36523 -3.47357 -0.589038
HEad  38.0011 41.1058 6.87694
LeftShoulder1  0.96782 -2.20088 -10.558
LeftArm  -23.4494 -27.1879 -45.8428
LeftForeArm  -20.9982 -2.97872 -3.42116
LeftHand  -0.0752105 3.62177 3.85127
RightShoulder  1.53876 1.5331 25.7347
RightArm  -11.3214 16.2098 45.4381
RightForeArm  63.1711 2.91749 10.6421
RightHand  0.117613 -6.2891 -17.0847
LeftUpLeg  -9.02719 -0.924852 -10.3595
LeftLeg  21.7935 11.0179 5.15903
LeftFoot  -7.81722 -0.152462 6.48051
LeftToes  -7.20997e-011 3.75522e-011 -2.80735e-011
1440
root  49.8006 38.8797 28.9147 -2.13344 42.4471 1.63019
RightUpLeg  -22.1614 4.81843 -6.52382
RightLeg  64.5687 -1.69796 -4.49768
RightFoot  -1.51166 -0.188804 2.07485
RightToes  5.38607e-012 1.2921e-014 -6.02303e-014
Spine  -4.69438 -3.5425 -5.71404
Spine1  6.86954 -4.3612 0.416881
HEad  37.1551 39.9912 6.37044
LeftShoulder1  1.01071 -2.21746 -11.3621
LeftArm  -22.757 -25.2714 -47.8556
LeftForeArm  -18.4322 -3.03829 -3.7343
LeftHand  -0.0968448 3.84478 6.09018
RightShoulder  1.23169 0.417034 27.0211
RightArm  -13.5142 11.1055 43.1218
RightForeArm  64.3729 0.45372 9.64958
RightHand  0.151019 -6.5057 -17.2566
LeftUpLeg  -5.9934 -1.6064 -10.5182
LeftLeg  21.0751 7.90333 3.94532
LeftFoot  -9.70774 -0.0394121 6.85813
LeftToes  -7.20997e-011 3.75522e-011 -2.80735e-011
1441
root  51.0206 38.9843 30.0781 -2.13994 46.8496 1.0282
RightUpLeg  -23.2636 4.05142 -5.60145
RightLeg  55.4616 -3.97585 -6.5998
RightFoot  -3.35935 -0.11889 1.37588
RightToes  5.38607e-012 1.2921e-014 -6.02303e-014
Spine  -4.77165 -4.18706 -6.35118
Spine1  6.54366 -5.09094 1.54418
HEad  35.9705 38.3758 5.93688
LeftShoulder1  1.03243 -2.17308 -11.9658
LeftArm  -22.0941 -22.8643 -49.3951
LeftForeArm  -15.3901 -2.80634 -4.03658
LeftHand  -0.0953311 3.87462 6.08318
RightShoulder  0.891747 -0.733772 28.5736
RightArm  -15.4557 5.89522 40.5897
RightForeArm  65.7505 -1.6423 8.68444
RightHand  0.224762 -7.04731 -16.8798
LeftUpLeg  -2.75381 -1.91668 -10.2157
LeftLeg  19.8549 4.37797 2.71745
LeftFoot  -11.1217 0.0531143 7.22636
LeftToes  -7.20997e-011 3.75522e-011 -2.80735e-011
1442
root  52.2577 39.0995 31.2087 -2.15622 50.3724 0.154968
RightUpLeg  -23.3899 4.74555 -4.64882
RightLeg  43.2193 -7.03043 -7.30762
RightFoot  -3.95777 -0.114564 1.35783
RightToes  5.38607e-012 1.2921e-014 -6.02303e-014
Spine  -5.27064 -4.52497 -6.03334
Spine1  6.54004 -5.34016 2.10316
HEad  34.4439 36.568 5.4409
LeftShoulder1  0.984815 -1.84376 -12.275
LeftArm  -21.1548 -19.8017 -50.4366
LeftForeArm  -12.064 -2.39714 -4.47425
LeftHand  -0.0995567 3.82038 6.21182
RightShoulder  0.606634 -1.61886 29.7662
RightArm  -17.3802 0.834759 38.5081
RightForeArm  66.7581 -4.12215 7.58826
RightHand  0.251711 -7.264 -16.6417
LeftUpLeg  0.443236 -1.76185 -9.43721
LeftLeg  17.9963 0.986837 1.77129
LeftFoot  -12.2042 0.125433 6.89123
LeftToes  -7.20997e-011 3.75522e-011 -2.80735e-011
1443
root  53.5273 39.174 32.3211 -1.97871 52.8899 -0.639771
RightUpLeg  -22.4242 6.13934 -3.80596
RightLeg  28.178 -10.5863 -6.30794
RightFoot  -3.96363 -0.160078 2.06374
RightToes  5.38607e-012 1.2921e-014 -6.02303e-014
Spine  -6.4047 -4.64557 -5.27875
Spine1  7.26655 -5.31985 2.30488
HEad  32.5757 35.2953 4.65209
LeftShoulder1  0.919946 -1.42711 -12.6195
LeftArm  -20.4786 -15.6566 -50.3899
LeftForeArm  -9.26722 -2.95404 -4.96838
LeftHand  -0.0993118 3.32419 4.77378
RightShoulder  0.413798 -2.18264 30.4904
RightArm  -19.6237 -3.68102 37.2171
RightForeArm  67.9054 -5.85552 6.36946
RightHand  0.291179 -7.58159 -16.371
LeftUpLeg  3.60051 -1.21099 -8.55612
LeftLeg  15.7214 -1.892 1.25716
LeftFoot  -12.7292 0.168584 7.5782
LeftToes  -7.20997e-011 3.75522e-011 -2.80735e-011
1444
root  54.8441 39.0813 33.4452 -1.17255 54.8839 -0.629761
RightUpLeg  -21.1135 2.48178 -2.25331
RightLeg  13.4884 -8.3127 -2.59
RightFoot  -5.59629 -0.189011 3.00694
RightToes  5.38607e-012 1.2921e-014 -6.02303e-014
Spine  -7.28646 -4.77317 -5.06813
Spine1  7.66789 -5.37263 2.5588
HEad  30.8051 34.4752 3.66423
LeftShoulder1  0.833474 -0.864523 -13.2228
LeftArm  -20.1333 -10.5056 -49.3345
LeftForeArm  -8.31961 -4.18466 -5.37956
LeftHand  -0.105335 2.71258 4.0516
RightShoulder  0.277726 -2.56191 30.7237
RightArm  -22.0631 -7.83238 36.3378
RightForeArm  69.5825 -5.59707 5.18208
RightHand  0.302684 -7.84433 -15.2737
LeftUpLeg  6.23691 -0.535106 -7.93079
LeftLeg  14.602 -4.51399 0.718595
LeftFoot  -13.7757 0.240575 7.40854
LeftToes  -7.20997e-011 3.75522e-011 -2.80735e-011
